<?xml version="1.0" standalone="no"?><svg xmlns="http://www.w3.org/2000/svg" viewBox="0 0 1440 320"><path fill="#EE5987" fill-opacity="1" d="M0,224L21.8,213.3C43.6,203,87,181,131,181.3C174.5,181,218,203,262,208C305.5,213,349,203,393,197.3C436.4,192,480,192,524,176C567.3,160,611,128,655,149.3C698.2,171,742,245,785,272C829.1,299,873,277,916,256C960,235,1004,213,1047,197.3C1090.9,181,1135,171,1178,165.3C1221.8,160,1265,160,1309,170.7C1352.7,181,1396,203,1418,213.3L1440,224L1440,0L1418.2,0C1396.4,0,1353,0,1309,0C1265.5,0,1222,0,1178,0C1134.5,0,1091,0,1047,0C1003.6,0,960,0,916,0C872.7,0,829,0,785,0C741.8,0,698,0,655,0C610.9,0,567,0,524,0C480,0,436,0,393,0C349.1,0,305,0,262,0C218.2,0,175,0,131,0C87.3,0,44,0,22,0L0,0Z"></path></svg>